<?xml version="1.0" encoding="utf-8"?>
<!-- Svg Vector Icons : http://www.onlinewebfonts.com/icon -->
<!DOCTYPE svg PUBLIC "-//W3C//DTD SVG 1.1//EN" "http://www.w3.org/Graphics/SVG/1.1/DTD/svg11.dtd">
<svg version="1.1" xmlns="http://www.w3.org/2000/svg" xmlns:xlink="http://www.w3.org/1999/xlink" x="0px" y="0px" viewBox="0 0 1000 1000" enable-background="new 0 0 1000 1000" xml:space="preserve" fill="#00ff00">
<metadata> Svg Vector Icons : http://www.onlinewebfonts.com/icon </metadata>
<g><path d="M500,10C229.3,10,10,229.4,10,500c0,270.6,219.4,490,490,490c270.6,0,490-219.4,490-490C990,229.4,770.6,10,500,10z M838.1,386.6L460.1,754.8c-9.5,9.2-24.9,9.2-34.4,0l-7.6-7.5l0,0l-8.2-8l-35.7-34.7c-0.3-0.2-0.3-0.5-0.5-0.8L210.3,543.4c-9.5-9.3-9.5-24.2,0-33.5l51.5-50.2c9.5-9.3,24.9-9.3,34.4,0l147,144.3l309-301.1c9.5-9.3,24.9-9.3,34.4,0l51.6,50.2C847.6,362.3,847.6,377.3,838.1,386.6z"/></g>
</svg>
